<?xml version="1.0" encoding="utf-8"?>
<!-- Generator: Adobe Illustrator 27.2.0, SVG Export Plug-In . SVG Version: 6.00 Build 0)  -->
<svg version="1.1" id="Слой_1" xmlns="http://www.w3.org/2000/svg" xmlns:xlink="http://www.w3.org/1999/xlink" x="0px" y="0px"
	 viewBox="0 0 64 64" style="enable-background:new 0 0 64 64;" xml:space="preserve">
<style type="text/css">
	.st0{fill:#57A0EE;stroke:#FFFFFF;stroke-width:1.2;stroke-linejoin:round;}
	.st1{fill:none;stroke:#91C0F8;stroke-width:2;stroke-linecap:round;stroke-dasharray:4,7;}
</style>
<g id="rainy-5">
	<g transform="translate(20,10)">
		<g>
			<path class="st0" d="M27.8,24.4c0-4.6-3.7-8.2-8.2-8.2c-1,0-1.9,0.2-2.8,0.5c-0.3-3.4-3.1-6.2-6.6-6.2c-3.7,0-6.7,3-6.7,6.7
				c0,0.8,0.2,1.6,0.4,2.3c-0.3-0.1-0.7-0.1-1-0.1c-3.7,0-6.7,3-6.7,6.7c0,3.6,2.9,6.6,6.5,6.7h17.2C24.3,32.3,27.8,28.8,27.8,24.4z
				"/>
		</g>
	</g>
	<g transform="translate(34,46), rotate(10)">
		<line class="st1" x1="-8.8" y1="10.3" x2="7.9" y2="7.5"/>
		<line class="st1" x1="-10.5" y1="1.1" x2="6.3" y2="-1.7"/>
		<line class="st1" x1="-15" y1="6.4" x2="12.4" y2="1.7"/>
	</g>
</g>
</svg>
